<svg xmlns="http://www.w3.org/2000/svg" width="640" height="400" viewBox="0 0 640 400" font-family="Helvetica Neue, Inter, Arial, sans-serif">
  <rect width="640" height="400" fill="#FFFFFF"/>

  <text x="40" y="46" font-size="22" font-weight="700" fill="#0F172A">Mechanism Catalog</text>
  <text x="40" y="68" font-size="13" fill="#64748B">62 signal-to-futures hypotheses across five buckets</text>

  <line x1="40" y1="84" x2="600" y2="84" stroke="#E2E8F0" stroke-width="1"/>

  <g>
    <rect x="40" y="106" width="110" height="160" rx="6" fill="#FFFFFF" stroke="#E2E8F0" stroke-width="1"/>
    <rect x="40" y="106" width="110" height="4" fill="#2563EB"/>
    <text x="95" y="158" font-size="36" font-weight="700" fill="#2563EB" text-anchor="middle">14</text>
    <text x="95" y="194" font-size="12" font-weight="600" fill="#0F172A" text-anchor="middle">Weather &amp;</text>
    <text x="95" y="210" font-size="12" font-weight="600" fill="#0F172A" text-anchor="middle">Crops</text>
    <text x="95" y="236" font-size="10" fill="#64748B" text-anchor="middle">precip, heat,</text>
    <text x="95" y="250" font-size="10" fill="#64748B" text-anchor="middle">CPC forecasts</text>

    <rect x="160" y="106" width="110" height="160" rx="6" fill="#FFFFFF" stroke="#E2E8F0" stroke-width="1"/>
    <rect x="160" y="106" width="110" height="4" fill="#2563EB"/>
    <text x="215" y="158" font-size="36" font-weight="700" fill="#2563EB" text-anchor="middle">12</text>
    <text x="215" y="194" font-size="12" font-weight="600" fill="#0F172A" text-anchor="middle">Energy</text>
    <text x="215" y="210" font-size="12" font-weight="600" fill="#0F172A" text-anchor="middle">Disruption</text>
    <text x="215" y="236" font-size="10" fill="#64748B" text-anchor="middle">freeze-offs,</text>
    <text x="215" y="250" font-size="10" fill="#64748B" text-anchor="middle">reactor trips</text>

    <rect x="280" y="106" width="110" height="160" rx="6" fill="#FFFFFF" stroke="#E2E8F0" stroke-width="1"/>
    <rect x="280" y="106" width="110" height="4" fill="#2563EB"/>
    <text x="335" y="158" font-size="36" font-weight="700" fill="#2563EB" text-anchor="middle">15</text>
    <text x="335" y="194" font-size="12" font-weight="600" fill="#0F172A" text-anchor="middle">Geopolitical</text>
    <text x="335" y="210" font-size="12" font-weight="600" fill="#0F172A" text-anchor="middle">Flow</text>
    <text x="335" y="236" font-size="10" fill="#64748B" text-anchor="middle">event count,</text>
    <text x="335" y="250" font-size="10" fill="#64748B" text-anchor="middle">sentiment</text>

    <rect x="400" y="106" width="110" height="160" rx="6" fill="#FFFFFF" stroke="#E2E8F0" stroke-width="1"/>
    <rect x="400" y="106" width="110" height="4" fill="#2563EB"/>
    <text x="455" y="158" font-size="36" font-weight="700" fill="#2563EB" text-anchor="middle">11</text>
    <text x="455" y="194" font-size="12" font-weight="600" fill="#0F172A" text-anchor="middle">Macro</text>
    <text x="455" y="210" font-size="12" font-weight="600" fill="#0F172A" text-anchor="middle">Positioning</text>
    <text x="455" y="236" font-size="10" fill="#64748B" text-anchor="middle">CFTC, term</text>
    <text x="455" y="250" font-size="10" fill="#64748B" text-anchor="middle">structure</text>

    <rect x="520" y="106" width="110" height="160" rx="6" fill="#FFFFFF" stroke="#E2E8F0" stroke-width="1"/>
    <rect x="520" y="106" width="110" height="4" fill="#2563EB"/>
    <text x="575" y="158" font-size="36" font-weight="700" fill="#2563EB" text-anchor="middle">10</text>
    <text x="575" y="194" font-size="12" font-weight="600" fill="#0F172A" text-anchor="middle">Physical</text>
    <text x="575" y="210" font-size="12" font-weight="600" fill="#0F172A" text-anchor="middle">Commodity</text>
    <text x="575" y="236" font-size="10" fill="#64748B" text-anchor="middle">gauges,</text>
    <text x="575" y="250" font-size="10" fill="#64748B" text-anchor="middle">inventories</text>
  </g>

  <line x1="40" y1="296" x2="600" y2="296" stroke="#E2E8F0" stroke-width="1"/>

  <text x="40" y="330" font-size="11" fill="#64748B">total</text>
  <text x="40" y="368" font-size="32" font-weight="700" fill="#0F172A">62 hypotheses</text>
  <text x="600" y="368" font-size="11" fill="#64748B" text-anchor="end">each catalogued before any data is loaded</text>
</svg>
